<svg xmlns="http://www.w3.org/2000/svg" width="1200" height="630" viewBox="0 0 1200 630">
  <defs>
    <linearGradient id="bg" x1="0" y1="0" x2="1" y2="1">
      <stop offset="0%" stop-color="#0f172a"/>
      <stop offset="100%" stop-color="#1e293b"/>
    </linearGradient>
    <linearGradient id="brand" x1="0" y1="0" x2="1" y2="1">
      <stop offset="0%" stop-color="#0ea5e9"/>
      <stop offset="100%" stop-color="#8b5cf6"/>
    </linearGradient>
  </defs>
  <rect width="1200" height="630" fill="url(#bg)"/>
  <g opacity="0.25">
    <circle cx="180" cy="140" r="120" fill="#0ea5e9"/>
    <circle cx="1080" cy="480" r="150" fill="#8b5cf6"/>
  </g>
  <g fill="none" stroke="rgba(255,255,255,0.08)" stroke-width="1">
    <path d="M0 540 H1200"/>
    <path d="M0 480 H1200"/>
    <path d="M0 420 H1200"/>
    <path d="M0 360 H1200"/>
    <path d="M0 300 H1200"/>
  </g>
  <g transform="translate(120,160)">
    <rect x="0" y="0" width="280" height="320" rx="24" fill="#111827"/>
    <rect x="24" y="24" width="232" height="120" rx="12" fill="#0b1222"/>
    <rect x="36" y="38" width="120" height="24" rx="4" fill="#1f2937"/>
    <rect x="36" y="72" width="90" height="16" rx="4" fill="#1f2937"/>
    <rect x="36" y="104" width="70" height="12" rx="4" fill="#1f2937"/>
    <rect x="24" y="160" width="232" height="136" rx="12" fill="#0b1222"/>
    <rect x="54" y="186" width="76" height="18" rx="9" fill="#22d3ee"/>
    <rect x="140" y="186" width="76" height="18" rx="9" fill="#a78bfa"/>
    <rect x="100" y="230" width="80" height="12" rx="6" fill="#334155"/>
  </g>
  <text x="480" y="270" font-family="Arial, Helvetica, sans-serif" font-size="96" font-weight="700" fill="url(#brand)">Elux</text>
  <text x="480" y="330" font-family="Arial, Helvetica, sans-serif" font-size="24" fill="#cbd5e1">
    Premium Home Electronic Appliances
  </text>
  <text x="480" y="370" font-family="Arial, Helvetica, sans-serif" font-size="18" fill="#94a3b8">
    Refrigerators • Air Conditioners • Washing Machines
  </text>
</svg>
